<svg height="512pt" preserveAspectRatio="xMidYMid meet" viewBox="0 0 512 512" width="512pt" xmlns="http://www.w3.org/2000/svg"><g transform="matrix(.1 0 0 -.1 0 512)"><path d="m2204 5045c-778-114-1447-573-1837-1261-141-249-249-573-292-876-20-140-20-546 0-686 146-1029 892-1849 1900-2092 215-52 327-64 585-64 245 0 339 10 543 56l99 22 74-37c41-20 79-37 84-37 6 0 10 75 11 198v197l91 44c264 127 523 363 686 627 232 374 359 844 379 1405l6 176-89 12c-327 44-667 145-971 286l-103 48v198c0 110-2 199-4 199s-52-23-112-51c-151-71-296-129-453-183-73-25-135-46-137-46s-4 61-4 135c0 125 1 135 19 135 10 0 76 5 147 10 249 19 493 62 708 124l117 34 8-22c7-17 47-181 66-272 4-17 26-30 102-57 53-20 99-34 101-32 6 5-44 240-73 350-14 49-21 92-17 95 4 4 41 19 82 35s151 67 243 113c160 80 169 83 183 65 58-73 166-249 219-359 76-154 105-229 150-384l33-115 48-8c27-5 58-10 69-12 20-4 20-9 13-227-24-821-241-1525-626-2033l-76-100 80 72c241 218 467 537 597 843 144 341 201 626 201 1000-1 240-12 343-59 556-226 1004-1069 1777-2093 1918-142 20-564 20-698 1zm276-841v-576l-97 6c-153 11-334 34-473 61-122 24-330 78-356 93s122 331 233 499c117 177 221 287 364 386 116 81 172 101 297 106l32 1zm377 546c163-70 342-237 485-449 104-156 257-473 244-506-6-15-194-68-358-100-136-27-318-50-470-60l-98-7v576 577l78-7c42-3 96-14 119-24zm-1083-167c-133-156-280-408-369-633-21-52-38-96-39-97s-64 25-140 57c-146 63-296 139-296 151 0 11 162 163 245 228 172 137 361 249 553 327 59 24 108 44 110 44 1 0-27-35-64-77zm1641 30c87-36 244-117 322-164 145-89 415-309 457-373l16-26-102-51c-107-54-329-152-333-147-2 2-24 55-50 118-88 216-213 431-349 599-75 91-75 91 39 44zm-2446-782c86-43 198-95 249-116 73-30 92-42 87-54-4-9-22-81-41-159-58-240-104-579-104-769v-83h-400c-220 0-403 0-407 0-11 1-5 105 13 230 49 336 188 682 391 968 24 34 47 62 50 62s76-35 162-79zm706-266c210-56 441-91 713-111l92-6-2-161-3-161-30-8c-84-23-287-62-425-82l-155-23v-181-182h-264-264l7 113c10 154 33 358 57 491 20 110 74 340 84 357 3 4 18 4 33-2 14-6 85-26 157-44zm2300-1080c207-58 315-197 315-405 0-202-116-361-306-420-84-26-235-44-301-36l-53 6v-240-240h-155-155v665c0 523 3 667 13 670 75 28 545 28 642 0zm-915-660v-675h-155-155v675 675h155 155zm-1897 487c11-255 59-565 123-796 14-48 24-89 22-90s-46-19-98-40-164-74-248-116l-153-78-41 56c-184 249-327 582-388 900-18 96-41 299-34 312 1 3 184 4 406 2l405-2zm610 151 107-6 4-31c45-309 61-404 90-526 19-80 44-176 55-213 14-50 17-69 8-71-7-2-77-16-157-31s-198-43-263-61c-65-19-122-32-127-29-10 6-63 223-89 367-35 189-71 573-57 597 8 12 257 15 429 4zm382-1128c63-153 149-315 241-453l84-125v-213-214l-77 6c-89 7-134 24-230 87-201 130-375 342-511 621-63 129-118 263-111 270 10 10 223 67 339 90 237 48 214 54 265-69zm-745-188c90-224 217-441 353-604l77-93-52 21c-186 73-330 148-480 251-99 68-284 223-341 287l-38 42 77 41c93 49 346 159 357 155 4-1 26-46 47-100zm1423-793c-16-7-61-15-100-19l-73-7v112 111l100-93 100-93z"/><path d="m3683 2273-53-4v-198c0-198 0-199 23-205 69-18 202 9 256 52 50 40 73 91 73 161 0 142-102 208-299 194z"/></g></svg>